REM DIRINDEX 1\2,1\3,1\4,1\5
REM DIRNAME folder01,folder02,folder03,folder04,folder05
TITLE ""
FILE "P1Q_j_1593-1606.mp3" MP3
  TRACK 01 AUDIO
    TITLE "3:cjc005_0128"
    INDEX 01 00:00:00
  TRACK 02 AUDIO
    TITLE "0:"
    INDEX 01 00:01:22
  TRACK 03 AUDIO
    TITLE "4:cjc005_0129"
    INDEX 01 00:01:52
  TRACK 04 AUDIO
    TITLE "0:"
    INDEX 01 00:03:00
  TRACK 05 AUDIO
    TITLE "5:cjc005_0130"
    INDEX 01 00:03:21
  TRACK 06 AUDIO
    TITLE "0:"
    INDEX 01 00:07:66
  TRACK 07 AUDIO
    TITLE "3:cjc005_0131"
    INDEX 01 00:08:52
  TRACK 08 AUDIO
    TITLE "0:"
    INDEX 01 00:09:73
  TRACK 09 AUDIO
    TITLE "4:cjc005_0132"
    INDEX 01 00:10:33
  TRACK 10 AUDIO
    TITLE "0:"
    INDEX 01 00:11:48
  TRACK 11 AUDIO
    TITLE "5:cjc005_0133"
    INDEX 01 00:11:74
  TRACK 12 AUDIO
    TITLE "0:"
    INDEX 01 00:16:08
  TRACK 13 AUDIO
    TITLE "3:cjc005_0134"
    INDEX 01 00:16:63
  TRACK 14 AUDIO
    TITLE "0:"
    INDEX 01 00:18:21
  TRACK 15 AUDIO
    TITLE "4:cjc005_0135"
    INDEX 01 00:18:52
  TRACK 16 AUDIO
    TITLE "0:"
    INDEX 01 00:20:08
  TRACK 17 AUDIO
    TITLE "5:cjc005_0136"
    INDEX 01 00:20:34
  TRACK 18 AUDIO
    TITLE "0:"
    INDEX 01 00:24:53
  TRACK 19 AUDIO
    TITLE "3:cjc005_0137"
    INDEX 01 00:25:37
  TRACK 20 AUDIO
    TITLE "0:"
    INDEX 01 00:26:69
  TRACK 21 AUDIO
    TITLE "4:cjc005_0138"
    INDEX 01 00:27:30
  TRACK 22 AUDIO
    TITLE "0:"
    INDEX 01 00:28:55
  TRACK 23 AUDIO
    TITLE "5:cjc005_0139"
    INDEX 01 00:29:05
  TRACK 24 AUDIO
    TITLE "0:"
    INDEX 01 00:32:37
  TRACK 25 AUDIO
    TITLE "3:cjc005_0140"
    INDEX 01 00:33:26
  TRACK 26 AUDIO
    TITLE "0:"
    INDEX 01 00:34:45
  TRACK 27 AUDIO
    TITLE "4:cjc005_0141"
    INDEX 01 00:34:73
  TRACK 28 AUDIO
    TITLE "0:"
    INDEX 01 00:36:27
  TRACK 29 AUDIO
    TITLE "5:cjc005_0142"
    INDEX 01 00:36:52
  TRACK 30 AUDIO
    TITLE "0:"
    INDEX 01 00:40:21
  TRACK 31 AUDIO
    TITLE "3:cjc005_0143"
    INDEX 01 00:41:10
  TRACK 32 AUDIO
    TITLE "0:"
    INDEX 01 00:42:41
  TRACK 33 AUDIO
    TITLE "4:cjc005_0144"
    INDEX 01 00:42:66
  TRACK 34 AUDIO
    TITLE "0:"
    INDEX 01 00:43:72
  TRACK 35 AUDIO
    TITLE "5:cjc005_0145"
    INDEX 01 00:44:20
  TRACK 36 AUDIO
    TITLE "0:"
    INDEX 01 00:48:08
  TRACK 37 AUDIO
    TITLE "3:cjc005_0146"
    INDEX 01 00:48:63
  TRACK 38 AUDIO
    TITLE "0:"
    INDEX 01 00:50:01
  TRACK 39 AUDIO
    TITLE "4:cjc005_0147"
    INDEX 01 00:50:29
  TRACK 40 AUDIO
    TITLE "0:"
    INDEX 01 00:51:44
  TRACK 41 AUDIO
    TITLE "5:cjc005_0148"
    INDEX 01 00:51:69
  TRACK 42 AUDIO
    TITLE "0:"
    INDEX 01 00:55:69
  TRACK 43 AUDIO
    TITLE "3:cjc005_0149"
    INDEX 01 00:56:55
  TRACK 44 AUDIO
    TITLE "0:"
    INDEX 01 00:57:62
  TRACK 45 AUDIO
    TITLE "4:cjc005_0150"
    INDEX 01 00:58:22
  TRACK 46 AUDIO
    TITLE "0:"
    INDEX 01 01:00:51
  TRACK 47 AUDIO
    TITLE "5:cjc005_0151"
    INDEX 01 01:01:03
  TRACK 48 AUDIO
    TITLE "0:"
    INDEX 01 01:03:41
  TRACK 49 AUDIO
    TITLE "3:cjc005_0152"
    INDEX 01 01:04:17
  TRACK 50 AUDIO
    TITLE "0:"
    INDEX 01 01:05:42
  TRACK 51 AUDIO
    TITLE "4:cjc005_0153"
    INDEX 01 01:06:04
  TRACK 52 AUDIO
    TITLE "0:"
    INDEX 01 01:07:17
  TRACK 53 AUDIO
    TITLE "5:cjc005_0154"
    INDEX 01 01:07:41
  TRACK 54 AUDIO
    TITLE "0:"
    INDEX 01 01:11:62
  TRACK 55 AUDIO
    TITLE "3:cjc005_0155"
    INDEX 01 01:12:44
  TRACK 56 AUDIO
    TITLE "0:"
    INDEX 01 01:14:00
  TRACK 57 AUDIO
    TITLE "4:cjc005_0156"
    INDEX 01 01:14:33
  TRACK 58 AUDIO
    TITLE "0:"
    INDEX 01 01:15:72
  TRACK 59 AUDIO
    TITLE "5:cjc005_0157"
    INDEX 01 01:16:20
  TRACK 60 AUDIO
    TITLE "0:"
    INDEX 01 01:19:40
  TRACK 61 AUDIO
    TITLE "3:cjc005_0158"
    INDEX 01 01:20:22
  TRACK 62 AUDIO
    TITLE "0:"
    INDEX 01 01:21:51
  TRACK 63 AUDIO
    TITLE "4:cjc005_0159"
    INDEX 01 01:21:74
  TRACK 64 AUDIO
    TITLE "0:"
    INDEX 01 01:23:40
  TRACK 65 AUDIO
    TITLE "5:cjc005_0160"
    INDEX 01 01:23:62
  TRACK 66 AUDIO
    TITLE "0:"
    INDEX 01 01:28:29
  TRACK 67 AUDIO
    TITLE "3:cjc005_0161"
    INDEX 01 01:29:01
  TRACK 68 AUDIO
    TITLE "0:"
    INDEX 01 01:30:38
  TRACK 69 AUDIO
    TITLE "4:cjc005_0162"
    INDEX 01 01:30:66
  TRACK 70 AUDIO
    TITLE "0:"
    INDEX 01 01:32:47
  TRACK 71 AUDIO
    TITLE "5:cjc005_0163"
    INDEX 01 01:32:74
  TRACK 72 AUDIO
    TITLE "0:"
    INDEX 01 01:36:47
  TRACK 73 AUDIO
    TITLE "3:cjc005_0164"
    INDEX 01 01:37:26
  TRACK 74 AUDIO
    TITLE "0:"
    INDEX 01 01:38:40
  TRACK 75 AUDIO
    TITLE "4:cjc005_0165"
    INDEX 01 01:38:73
  TRACK 76 AUDIO
    TITLE "0:"
    INDEX 01 01:40:23
  TRACK 77 AUDIO
    TITLE "5:cjc005_0166"
    INDEX 01 01:40:44
  TRACK 78 AUDIO
    TITLE "0:"
    INDEX 01 01:43:07
  TRACK 79 AUDIO
    TITLE "3:cjc005_0167"
    INDEX 01 01:43:62
  TRACK 80 AUDIO
    TITLE "0:"
    INDEX 01 01:45:08
  TRACK 81 AUDIO
    TITLE "4:cjc005_0168"
    INDEX 01 01:45:44
  TRACK 82 AUDIO
    TITLE "0:"
    INDEX 01 01:47:05
  TRACK 83 AUDIO
    TITLE "5:cjc005_0169"
    INDEX 01 01:47:31
  TRACK 84 AUDIO
    TITLE "0:"
    INDEX 01 01:50:15
